HIERARCHY
ROOT Hips
{
	OFFSET -205.430496 91.959190 327.678589
	CHANNELS 6 Xposition Yposition Zposition Zrotation Yrotation Xrotation 
	JOINT LeftUpLeg
	{
		OFFSET 0.103457 1.857824 10.548498
		CHANNELS 3 Zrotation Yrotation Xrotation
		JOINT LeftLeg
		{
			OFFSET 43.499996 -0.000015 -0.000004
			CHANNELS 3 Zrotation Yrotation Xrotation
			JOINT LeftFoot
			{
				OFFSET 42.372196 0.000008 -0.000001
				CHANNELS 3 Zrotation Yrotation Xrotation
				JOINT LeftToe
				{
					OFFSET 17.299995 -0.000002 0.000010
					CHANNELS 3 Zrotation Yrotation Xrotation
					End Site
					{
						OFFSET 0.000000 0.000000 0.000000
					}
				}
			}
		}
	}
	JOINT RightUpLeg
	{
		OFFSET 0.103454 1.857824 -10.548500
		CHANNELS 3 Zrotation Yrotation Xrotation
		JOINT RightLeg
		{
			OFFSET 43.500046 -0.000011 0.000004
			CHANNELS 3 Zrotation Yrotation Xrotation
			JOINT RightFoot
			{
				OFFSET 42.372265 -0.000011 0.000026
				CHANNELS 3 Zrotation Yrotation Xrotation
				JOINT RightToe
				{
					OFFSET 17.299980 -0.000010 -0.000006
					CHANNELS 3 Zrotation Yrotation Xrotation
					End Site
					{
						OFFSET 0.000000 0.000000 0.000000
					}
				}
			}
		}
	}
	JOINT Spine
	{
		OFFSET 6.901963 -2.603726 0.000004
		CHANNELS 3 Zrotation Yrotation Xrotation
		JOINT Spine1
		{
			OFFSET 12.588104 -0.000003 -0.000010
			CHANNELS 3 Zrotation Yrotation Xrotation
			JOINT Spine2
			{
				OFFSET 12.343198 -0.000010 0.000004
				CHANNELS 3 Zrotation Yrotation Xrotation
				JOINT Neck
				{
					OFFSET 25.832890 0.000000 -0.000007
					CHANNELS 3 Zrotation Yrotation Xrotation
					JOINT Head
					{
						OFFSET 11.766619 0.000023 0.000000
						CHANNELS 3 Zrotation Yrotation Xrotation
						End Site
						{
							OFFSET 0.000000 0.000000 0.000000
						}
					}
				}
				JOINT LeftShoulder
				{
					OFFSET 19.745903 -1.480354 6.000105
					CHANNELS 3 Zrotation Yrotation Xrotation
					JOINT LeftArm
					{
						OFFSET 11.284121 -0.000017 -0.000021
						CHANNELS 3 Zrotation Yrotation Xrotation
						JOINT LeftForeArm
						{
							OFFSET 33.000046 0.000028 0.000038
							CHANNELS 3 Zrotation Yrotation Xrotation
							JOINT LeftHand
							{
								OFFSET 25.200014 0.000018 0.000005
								CHANNELS 3 Zrotation Yrotation Xrotation
								End Site
								{
									OFFSET 0.000000 0.000000 0.000000
								}
							}
						}
					}
				}
				JOINT RightShoulder
				{
					OFFSET 19.746107 -1.480354 -6.000082
					CHANNELS 3 Zrotation Yrotation Xrotation
					JOINT RightArm
					{
						OFFSET 11.284134 -0.000006 -0.000004
						CHANNELS 3 Zrotation Yrotation Xrotation
						JOINT RightForeArm
						{
							OFFSET 33.000084 0.000028 0.000016
							CHANNELS 3 Zrotation Yrotation Xrotation
							JOINT RightHand
							{
								OFFSET 25.199760 0.000129 0.000414
								CHANNELS 3 Zrotation Yrotation Xrotation
								End Site
								{
									OFFSET 0.000000 0.000000 0.000000
								}
							}
						}
					}
				}
			}
		}
	}
}
MOTION
Frames: 17
Frame Time: 0.033333
-205.430496 91.959190 327.678589 91.310777 -0.799604 86.382523 179.132366 -0.361598 -179.929162 -11.860819 -0.836990 -0.590064 81.100116 0.509144 0.220710 21.454550 0.003102 0.000001 175.334808 1.464497 175.561297 -17.971421 -4.319016 1.989841 83.381939 -0.113690 5.551457 21.454557 -0.003101 -0.000017 5.746630 0.140265 0.028510 1.480503 0.280126 0.058706 1.162388 0.280608 0.057020 -2.674624 -4.990456 4.498660 -2.258118 0.230104 1.994646 -125.217940 -81.712668 -57.004817 -10.072180 1.190553 -3.843324 -9.393512 -7.304968 0.499434 11.683607 -9.025844 27.898306 -80.659753 84.535066 101.578423 -6.880864 -1.646108 2.865667 -14.844731 11.139114 -0.802054 12.882552 -1.087264 -7.349773 
-205.498093 91.912621 327.721008 91.294924 -0.839112 86.180069 179.129675 -0.510096 179.795878 -11.922686 -0.940448 -0.483953 81.286580 0.428147 0.178540 21.454553 0.003100 0.000000 175.107008 1.294490 175.521928 -18.392841 -4.460075 1.932040 83.789885 -0.148068 5.281957 21.454558 -0.003096 -0.000017 5.793635 0.175131 0.038864 1.574554 0.349675 0.080016 1.256454 0.350308 0.077892 -2.897799 -4.695420 4.514188 -1.991838 -0.141965 2.222219 -128.025667 -81.248351 -54.196906 -11.099200 3.469320 -3.613033 -10.571541 -7.988780 0.548486 11.511362 -8.031481 28.546026 -84.125282 84.765687 98.080943 -7.490674 -3.157588 1.871729 -16.517303 11.696049 -0.851723 12.777732 -0.760494 -7.638666 
-205.608200 91.859047 327.772705 91.313987 -0.972492 85.877177 179.082478 -0.635595 179.539787 -11.927068 -1.023156 -0.464661 81.465176 0.391339 0.069966 21.454553 0.003089 -0.000002 174.733615 1.062903 175.293226 -18.973738 -4.661200 2.145947 84.367262 -0.381670 4.963634 21.454558 -0.003110 -0.000020 5.821224 0.205646 0.074240 1.629892 0.410220 0.151255 1.311787 0.411265 0.148771 -3.140254 -4.381300 4.556567 -1.745606 -0.549517 2.491053 -130.375539 -80.380678 -51.871165 -12.916769 6.508391 -2.151709 -11.862801 -9.014755 0.621207 12.334650 -9.496633 28.176866 -89.660604 85.018267 92.503349 -7.873799 -5.190296 0.603037 -19.090235 12.896201 -0.954236 12.413593 0.459845 -8.391444 
-205.803207 91.786751 327.827087 91.350290 -1.219592 85.610001 178.840895 -0.785288 179.734229 -12.094905 -1.153819 -0.704613 81.729477 0.509949 -0.145897 21.454553 0.003099 0.000001 174.161901 0.711810 175.455293 -19.832781 -5.057203 2.755347 85.200422 -0.945398 4.346086 21.454557 -0.003111 -0.000018 5.837459 0.237693 0.115126 1.662574 0.473740 0.233498 1.344469 0.475268 0.230642 -3.652276 -4.204574 4.722885 -1.007488 -0.790644 2.750442 -135.252471 -78.976999 -47.003822 -15.312258 9.439774 -0.606356 -12.914930 -9.672073 0.669684 11.792959 -11.275541 27.759434 -98.813426 85.247994 83.292361 -8.012778 -7.747027 -0.845087 -22.470592 14.408088 -1.092572 11.688961 3.490511 -8.716611 
-206.065201 91.705147 327.927094 91.403272 -1.437055 85.382508 178.652928 -0.947898 179.880654 -12.273502 -1.251332 -0.900170 82.017055 0.589339 -0.402590 21.454551 0.003092 0.000001 173.591430 0.330706 176.248346 -20.915820 -5.516406 3.913797 86.366677 -1.976638 3.225358 21.454558 -0.003115 -0.000020 5.869052 0.261617 0.152530 1.725979 0.520961 0.308816 1.407875 0.522961 0.305648 -4.249941 -3.730738 4.927208 0.144112 -1.360878 3.242583 -142.563725 -77.282197 -39.646581 -17.428889 12.349370 1.266263 -14.493091 -10.075963 0.706320 11.003301 -12.514448 28.512165 -117.002520 85.236055 65.024077 -7.760960 -10.040579 -3.033209 -26.728501 15.667300 -1.238603 10.989742 6.331832 -9.291701 
-206.380600 91.606003 328.098785 91.518019 -1.591933 85.232203 178.535189 -1.060695 179.542628 -12.519735 -1.208714 -0.772468 82.351024 0.448561 -0.643757 21.454555 0.003099 0.000001 173.143656 0.286410 177.925144 -21.866314 -5.803131 4.619466 87.324091 -2.575554 2.633087 21.454557 -0.003111 -0.000017 5.913486 0.248295 0.173979 1.814889 0.493899 0.351698 1.496790 0.496144 0.348720 -4.816029 -2.793808 5.028928 1.556354 -2.120304 3.875736 -149.703991 -75.860883 -32.409896 -19.088055 15.729294 3.693259 -16.493858 -9.918079 0.712379 10.807107 -12.866931 28.164090 -139.392072 83.954930 42.560599 -7.700628 -11.895280 -5.446220 -31.336081 16.633182 -1.387311 9.449501 8.876340 -10.022100 
-206.797302 91.484833 328.367706 91.659657 -1.698881 85.169317 178.419185 -1.175793 179.273068 -12.976963 -1.104570 -0.629809 82.831651 0.282294 -0.958788 21.454551 0.003094 -0.000000 172.867785 0.235407 179.487358 -22.560654 -6.198658 4.631385 87.772452 -2.602686 2.511353 21.454560 -0.003126 -0.000020 5.956377 0.204765 0.166326 1.900505 0.406813 0.335867 1.582405 0.408978 0.333418 -4.992414 -1.762410 5.043691 2.825184 -2.650714 4.425642 -154.837629 -75.107383 -27.176976 -20.938957 20.435304 5.825178 -18.293900 -8.996412 0.669829 9.549843 -12.480081 27.175885 -150.749570 82.027007 31.154829 -7.993364 -14.380261 -7.842532 -36.066267 16.857366 -1.507233 8.181499 9.700609 -12.673603 
-207.302597 91.355171 328.715515 91.790755 -1.801221 85.113214 178.202286 -1.281904 179.004642 -13.766352 -0.836041 -0.483809 83.513734 0.089027 -1.394996 21.454551 0.003083 -0.000000 172.644274 0.131099 179.893044 -23.184783 -6.234919 4.322498 87.844839 -2.355523 2.731191 21.454560 -0.003104 -0.000018 5.980191 0.164765 0.148796 1.947962 0.327022 0.300234 1.629869 0.328980 0.298255 -4.351098 -1.051793 5.039590 3.385054 -3.140178 4.841848 -159.674810 -74.756673 -22.226942 -22.966798 25.884952 8.155566 -20.195952 -8.466094 0.656017 9.267770 -8.831559 27.865744 -153.846596 80.664555 28.050895 -8.653704 -18.540357 -10.669984 -40.588741 17.125320 -1.639981 7.256621 9.158189 -14.828689 
-207.879395 91.208504 329.164490 91.802510 -1.791972 85.108282 177.869642 -1.411602 177.822664 -15.142519 -0.049493 0.177805 84.510224 -0.489447 -1.979007 21.454553 0.003092 -0.000001 172.721510 -0.078901 179.260200 -23.665641 -5.923689 4.560158 87.659734 -2.314702 3.922742 21.454560 -0.003105 -0.000018 6.025474 0.169232 0.063761 2.038292 0.337304 0.130415 1.720201 0.338214 0.128363 -3.305155 -0.859402 5.327728 3.713018 -3.590814 5.298249 -163.673394 -74.317246 -18.130674 -25.180940 31.390074 10.477537 -22.825183 -8.432576 0.686966 9.500651 -3.734484 31.305209 -155.971809 79.785038 25.911762 -9.477686 -23.372252 -13.374377 -44.388361 16.943553 -1.735321 6.758169 7.005175 -16.634229 
-208.556900 91.023422 329.707092 91.499113 -1.648687 85.228057 177.238764 -1.853609 176.652775 -17.515130 0.977635 0.876160 85.935043 -1.113785 -2.742344 21.454555 0.003094 -0.000001 173.206221 -0.497890 179.327682 -23.828915 -5.556566 4.480018 87.958568 -2.134071 4.763259 21.454558 -0.003115 -0.000018 6.120653 0.254482 -0.075960 2.228118 0.510285 -0.147151 1.910016 0.509527 -0.150226 -2.302040 -0.676721 5.650803 4.226207 -4.598680 5.878203 -167.253014 -73.810596 -14.458124 -27.470061 36.518546 12.900660 -26.358267 -8.975962 0.775243 9.192278 0.288958 35.035834 -158.112486 78.861644 23.751317 -10.573501 -27.994656 -16.324823 -47.361174 16.450816 -1.792815 7.338158 5.035122 -18.027820 
-209.279999 90.752724 330.252991 90.767770 -1.479539 85.254578 175.750494 -2.788495 175.819765 -21.723663 2.043202 1.319367 87.679610 -1.531612 -3.487696 21.454557 0.003107 0.000001 173.864870 -1.248094 178.875933 -23.815654 -4.678093 4.615185 88.420562 -2.218731 5.021462 21.454560 -0.003102 -0.000016 6.259698 0.447236 -0.218839 2.504951 0.898932 -0.428207 2.186814 0.896477 -0.433629 -1.376876 -0.559060 6.138603 4.518789 -5.797390 6.623446 -169.768382 -73.549615 -11.873997 -29.825148 41.654107 14.157056 -30.702387 -10.380197 0.944517 9.164512 1.646985 37.628537 -160.624425 77.871267 21.206522 -12.141524 -31.988129 -18.537098 -48.917497 16.237697 -1.827799 7.625891 1.123433 -21.003303 
-210.035507 90.137108 330.754211 89.505504 -1.388172 85.084315 172.631214 -4.376022 175.842974 -29.113285 2.961305 1.197989 89.860264 -1.531712 -4.316105 21.454553 0.003089 0.000000 173.906698 -2.683304 178.674197 -24.926960 -4.034130 4.644170 89.540734 -2.318866 4.809002 21.454560 -0.003113 -0.000018 6.416314 0.770519 -0.341337 2.815547 1.548901 -0.664285 2.497326 1.544985 -0.673624 -0.462289 -1.019578 6.871850 4.447291 -6.430236 7.270583 -170.672084 -73.556445 -10.945487 -32.582246 46.741645 12.952463 -35.193298 -12.370598 1.168913 9.163824 1.198684 37.434149 -164.224235 77.056364 17.540783 -13.937569 -35.563586 -20.062070 -48.744779 16.629065 -1.848267 7.932672 -1.448408 -21.608845 
-210.848907 89.554558 331.316986 88.236038 -1.287206 84.563964 168.353030 -6.064411 175.287584 -38.555885 4.508892 1.386882 89.686756 -1.922134 -5.637785 21.454551 0.003091 -0.000001 174.144921 -4.413697 178.542046 -25.725826 -3.916610 4.565140 90.549935 -2.369511 4.284806 21.454557 -0.003114 -0.000018 6.592152 1.082603 -0.381069 3.165046 2.174984 -0.733016 2.846734 2.170657 -0.746137 0.064907 -1.594828 7.518204 4.783543 -6.784957 7.698783 -170.489117 -73.865798 -11.134884 -34.999249 50.961455 10.269977 -41.355474 -13.394089 1.388594 9.270730 -0.496368 37.524130 -167.655285 76.466229 14.037295 -16.244070 -39.617092 -19.595686 -46.496222 16.825696 -1.790879 8.123773 -0.487715 -20.415896 
-211.642197 89.099899 332.005310 87.346433 -1.138434 83.704788 163.264621 -7.182999 176.869538 -49.150543 5.045169 0.690894 85.836019 -1.641382 -5.490059 21.454555 0.003104 0.000002 174.732577 -5.845782 177.851924 -26.060623 -3.864921 4.611575 91.388218 -2.493951 3.712329 21.454560 -0.003106 -0.000015 6.790792 1.306260 -0.336463 3.562410 2.622048 -0.633265 3.243975 2.618318 -0.649106 0.224289 -2.337778 8.148506 5.364495 -6.869516 7.959550 -169.987685 -73.898774 -11.649869 -36.339079 53.191754 9.467319 -49.102390 -14.019131 1.656437 9.494811 -0.842906 37.762839 -171.118300 76.183691 10.495825 -18.091165 -43.448722 -18.537804 -44.554260 16.678125 -1.722748 8.353987 1.186397 -19.838037 
-212.330200 88.840218 332.987213 87.133147 -1.013795 82.804794 158.024841 -7.289005 178.989779 -59.229126 4.670179 -0.616645 81.017197 -0.739309 -4.491013 21.454545 0.003085 0.000001 175.672261 -6.438595 177.303446 -25.896476 -3.842691 4.461869 92.085485 -2.465572 3.266459 21.454560 -0.003110 -0.000017 6.940443 1.398671 -0.232952 3.864050 2.804184 -0.419742 3.545550 2.801754 -0.436694 0.444111 -2.987222 8.548715 5.806733 -6.910911 8.051398 -169.789583 -73.938328 -11.853504 -37.444999 53.777949 10.047223 -56.564242 -14.013345 1.906582 8.052839 -1.398530 40.105266 -173.904922 75.950187 7.643829 -18.619803 -46.528861 -18.529564 -44.126273 16.748293 -1.714806 8.268906 1.794849 -20.153511 
-212.964706 88.830048 334.197815 87.441653 -0.884910 82.152450 153.397156 -6.523492 179.962302 -67.256682 4.651449 -1.949213 79.291188 0.380093 -3.425958 21.454553 0.003086 0.000001 177.021701 -6.237488 177.100016 -25.027401 -3.596562 4.139592 92.429269 -2.336543 2.720580 21.454560 -0.003116 -0.000020 7.036587 1.416846 -0.145077 4.058568 2.837792 -0.240978 3.740057 2.836424 -0.258134 1.227541 -3.674904 8.769139 5.780314 -6.846589 8.016132 -169.344090 -74.109964 -12.311349 -38.323194 53.722406 10.241219 -63.122887 -13.100971 2.087014 6.165458 -2.196228 44.349969 -175.485004 75.609245 6.023254 -17.906244 -48.677741 -19.736019 -45.171668 16.709161 -1.743104 7.855156 2.201273 -19.850813 
-213.526993 88.683617 335.599915 87.729436 -0.934148 81.701753 149.482283 -5.733903 -179.524132 -71.775555 3.930020 -2.994714 79.592440 1.143319 -3.393177 21.454551 0.003088 -0.000003 177.990454 -6.033601 177.252438 -24.835012 -3.458226 3.783235 93.115757 -2.164549 2.325897 21.454558 -0.003115 -0.000020 7.068829 1.453330 -0.105253 4.124092 2.909378 -0.159256 3.805548 2.908495 -0.176834 2.189267 -4.395709 9.076348 5.994256 -6.879863 8.069484 -168.126513 -74.433312 -13.561214 -39.217823 53.804549 9.432694 -67.939079 -12.280968 2.219758 4.910501 -2.505056 48.672198 -176.246584 75.405439 5.241041 -16.479495 -50.089015 -22.581531 -46.943112 17.003867 -1.816444 7.394587 3.417128 -18.795728 
